<?xml version="1.0" encoding="UTF-8" standalone="no"?>
<!-- Created with Inkscape (http://www.inkscape.org/) -->

<svg
   width="84.666664mm"
   height="18.96994mm"
   viewBox="0 0 84.666664 18.96994"
   version="1.1"
   id="svg5"
   inkscape:version="1.1.2 (b8e25be8, 2022-02-05)"
   sodipodi:docname="marvel_logo_2.svg"
   xmlns:inkscape="http://www.inkscape.org/namespaces/inkscape"
   xmlns:sodipodi="http://sodipodi.sourceforge.net/DTD/sodipodi-0.dtd"
   xmlns="http://www.w3.org/2000/svg"
   xmlns:svg="http://www.w3.org/2000/svg">
  <sodipodi:namedview
     id="namedview7"
     pagecolor="#505050"
     bordercolor="#eeeeee"
     borderopacity="1"
     inkscape:pageshadow="0"
     inkscape:pageopacity="0"
     inkscape:pagecheckerboard="0"
     inkscape:document-units="mm"
     showgrid="false"
     inkscape:zoom="1.1963697"
     inkscape:cx="75.64551"
     inkscape:cy="-0.417931"
     inkscape:window-width="1378"
     inkscape:window-height="847"
     inkscape:window-x="62"
     inkscape:window-y="25"
     inkscape:window-maximized="0"
     inkscape:current-layer="layer1"
     fit-margin-top="0"
     fit-margin-left="0"
     fit-margin-right="0"
     fit-margin-bottom="0" />
  <defs
     id="defs2" />
  <g
     inkscape:label="Layer 1"
     inkscape:groupmode="layer"
     id="layer1"
     transform="translate(-69.897082,-65.335307)">
    <g
       transform="matrix(0.48392704,0,0,0.48392704,-90.156226,38.329773)"
       id="g7995">
      <path
         d="m 422.67351,57.26872 h 83.0225 v -1.4575 h -83.0225 z"
         style="fill:#ffffff;fill-opacity:1;fill-rule:nonzero;stroke:none"
         id="path4936" />
      <path
         d="m 422.67351,94.98997 h 83.0225 v -1.4575 h -83.0225 z"
         style="fill:#ffffff;fill-opacity:1;fill-rule:nonzero;stroke:none"
         id="path4938" />
      <g
         id="g4948"
         transform="matrix(1.25,0,0,-1.25,434.20201,80.494595)"
         style="fill:#000000">
        <path
           d="m 0,0 v -3.344 c 0,-2.852 -1.41,-4.262 -4.262,-4.262 h -0.721 c -2.82,0 -4.197,1.41 -4.197,4.197 v 3.196 h 2.557 v -3.295 c 0,-1.18 0.558,-1.737 1.738,-1.737 h 0.524 c 1.181,0 1.738,0.557 1.738,1.737 v 3.443 c 0,1.147 -0.393,1.639 -1.148,2.196 L -6.983,4.459 C -8.688,5.672 -9.18,6.852 -9.18,8.721 v 2.753 c 0,2.852 1.41,4.262 4.262,4.262 h 0.656 c 2.819,0 4.196,-1.41 4.196,-4.196 V 9.573 h -2.557 v 2.065 c 0,1.181 -0.557,1.738 -1.738,1.738 H -4.82 c -1.18,0 -1.737,-0.557 -1.737,-1.738 V 8.753 c 0,-1.147 0.426,-1.639 1.18,-2.196 L -2.196,4.262 C -0.525,3.049 0,1.967 0,0"
           style="fill:#ffffff;fill-opacity:1;fill-rule:nonzero;stroke:none"
           id="path4950" />
      </g>
      <g
         id="g4952"
         transform="matrix(1.25,0,0,-1.25,439.23338,89.75597)"
         style="fill:#000000">
        <path
           d="m 0,0 v 20.523 h -3.442 v 2.426 H 6.065 V 20.523 H 2.623 V 0 Z"
           style="fill:#ffffff;fill-opacity:1;fill-rule:nonzero;stroke:none"
           id="path4954" />
      </g>
      <g
         id="g4956"
         transform="matrix(1.25,0,0,-1.25,459.74488,84.674345)"
         style="fill:#000000">
        <path
           d="m 0,0 c 0,-2.852 -1.41,-4.262 -4.262,-4.262 h -0.82 c -2.852,0 -4.262,1.41 -4.262,4.262 v 18.884 h 2.623 V -0.131 c 0,-1.181 0.557,-1.738 1.738,-1.738 h 0.623 c 1.18,0 1.737,0.557 1.737,1.738 V 18.884 H 0 Z"
           style="fill:#ffffff;fill-opacity:1;fill-rule:nonzero;stroke:none"
           id="path4958" />
      </g>
      <g
         id="g4960"
         transform="matrix(1.25,0,0,-1.25,465.11401,86.76422)"
         style="fill:#000000">
        <path
           d="m 0,0 h 1.574 c 1.77,0 2.59,0.885 2.59,2.655 v 12.852 c 0,1.77 -0.82,2.655 -2.59,2.655 H 0 Z m -2.623,20.555 h 4.328 c 3.442,0 5.081,-1.639 5.081,-5.081 V 2.688 c 0,-3.442 -1.639,-5.081 -5.081,-5.081 h -4.328 z"
           style="fill:#ffffff;fill-opacity:1;fill-rule:nonzero;stroke:none"
           id="path4962" />
      </g>
      <path
         d="m 478.84851,89.75622 h -3.27875 V 61.06997 h 3.27875 z"
         style="fill:#ffffff;fill-opacity:1;fill-rule:nonzero;stroke:none"
         id="path4964" />
      <g
         id="g4966"
         transform="matrix(1.25,0,0,-1.25,487.25476,63.81547)"
         style="fill:#000000">
        <path
           d="m 0,0 h -0.787 c -1.18,0 -1.737,-0.558 -1.737,-1.738 v -15.08 c 0,-1.181 0.557,-1.738 1.737,-1.738 H 0 c 1.18,0 1.737,0.557 1.737,1.738 v 15.08 C 1.737,-0.558 1.18,0 0,0 m 0.098,-20.949 h -0.983 c -2.852,0 -4.262,1.409 -4.262,4.262 v 14.818 c 0,2.852 1.41,4.262 4.262,4.262 h 0.983 c 2.853,0 4.262,-1.41 4.262,-4.262 v -14.818 c 0,-2.853 -1.409,-4.262 -4.262,-4.262"
           style="fill:#ffffff;fill-opacity:1;fill-rule:nonzero;stroke:none"
           id="path4968" />
      </g>
      <g
         id="g4970"
         transform="matrix(1.25,0,0,-1.25,505.62513,80.494595)"
         style="fill:#000000">
        <path
           d="m 0,0 v -3.344 c 0,-2.852 -1.41,-4.262 -4.262,-4.262 h -0.721 c -2.82,0 -4.197,1.41 -4.197,4.197 v 3.196 h 2.557 v -3.295 c 0,-1.18 0.558,-1.737 1.738,-1.737 h 0.524 c 1.181,0 1.738,0.557 1.738,1.737 v 3.443 c 0,1.147 -0.393,1.639 -1.148,2.196 L -6.983,4.459 C -8.688,5.672 -9.18,6.852 -9.18,8.721 v 2.753 c 0,2.852 1.41,4.262 4.262,4.262 h 0.656 c 2.819,0 4.197,-1.41 4.197,-4.196 V 9.573 h -2.558 v 2.065 c 0,1.181 -0.557,1.738 -1.738,1.738 H -4.82 c -1.18,0 -1.737,-0.557 -1.737,-1.738 V 8.753 c 0,-1.147 0.426,-1.639 1.18,-2.196 L -2.196,4.262 C -0.525,3.049 0,1.967 0,0"
           style="fill:#ffffff;fill-opacity:1;fill-rule:nonzero;stroke:none"
           id="path4972" />
      </g>
      <path
         d="m 330.73851,95.00497 h 87.0275 v -39.2 h -87.0275 z"
         style="fill:#e50b14;fill-opacity:1;fill-rule:nonzero;stroke:none"
         id="path4974" />
      <g
         id="g4976"
         transform="matrix(1.25,0,0,-1.25,404.49326,66.292595)">
        <path
           d="M 0,0 H -3.716 V -5.184 H 0 v -4.19 h -3.716 v -5.262 H 0 v -4.128 h -7.825 v 20.8 l -3.299,-20.8 -4.827,-0.013 c 0,0 -2.462,14.73 -2.466,14.761 v -0.001 c 0.398,-2.38 -1.098,-4.866 -2.421,-5.847 l 2.612,-8.9 h -0.004 -0.007 l 0.002,-0.005 h -0.007 -4.047 -0.004 l -1.992,7.595 -0.96,-0.141 v -7.449 h -0.007 -0.005 v -0.005 h -0.004 l -7.847,0.005 -0.482,3.53 h -3.218 l -0.484,-3.53 h -7.991 v 11.061 l -1.859,-11.061 h -2.203 l -1.886,11.061 v -11.061 h -4.146 V 4.184 h 5.264 l 1.848,-11.856 1.897,11.856 h 5.261 V -16.92 l 3.165,21.107 5.498,-0.003 3.061,-20.372 0.016,20.372 c 0,0 4.177,0.002 4.202,0 3.783,0 5.501,-2.775 5.986,-3.731 l -0.47,3.731 h 4.197 l 1.894,-13.976 1.916,13.976 H 0 Z"
           style="fill:#ffffff;fill-opacity:1;fill-rule:nonzero;stroke:none"
           id="path4978" />
      </g>
      <g
         id="g4980"
         transform="matrix(1.25,0,0,-1.25,372.96213,66.16747)"
         style="fill:#e50b14;fill-opacity:1">
        <path
           d="m 0,0 c -0.009,0 -0.016,0 -0.02,0 v -7.38 c 0.324,0 0.655,0.077 0.974,0.23 0.967,0.471 1.79,1.643 1.79,3.5 C 2.744,-0.096 0.324,0.003 0,0"
           style="fill:#e50b14;fill-opacity:1;fill-rule:nonzero;stroke:none"
           id="path4982" />
      </g>
      <g
         id="g4984"
         transform="matrix(1.25,0,0,-1.25,359.09314,80.76747)"
         style="fill:#e50b14;fill-opacity:1">
        <path
           d="M 0,0 H 2.319 L 1.138,9.812 Z"
           style="fill:#e50b14;fill-opacity:1;fill-rule:nonzero;stroke:none"
           id="path4986" />
      </g>
      <g
         id="g4988"
         transform="matrix(1.25,0,0,-1.25,414.93101,89.741345)">
        <path
           d="m 0,0 h -7.634 v 22.947 h 4.111 V 4.127 H 0 Z"
           style="fill:#ffffff;fill-opacity:1;fill-rule:nonzero;stroke:none"
           id="path4990" />
      </g>
    </g>
  </g>
</svg>
